<svg xmlns="http://www.w3.org/2000/svg" viewBox="0 0 500 372.61"><defs><style>.cls-1{fill:#ebebeb;}.cls-2{fill:#f0f0f0;}.cls-3{fill:#f5f5f5;}.cls-4{fill:#e6e6e6;}.cls-13,.cls-20,.cls-23,.cls-5,.cls-9{fill:#fff;}.cls-6{fill:#e0e0e0;}.cls-7{fill:#fafafa;}.cls-11,.cls-12,.cls-15,.cls-8{fill:#fdc029;}.cls-14,.cls-9{opacity:0.3;}.cls-10{fill:#263238;}.cls-11,.cls-13{opacity:0.4;}.cls-12{opacity:0.1;}.cls-15{opacity:0.6;}.cls-16{fill:#ff5652;}.cls-17{fill:#ff8b7b;}.cls-18,.cls-19{opacity:0.2;}.cls-20{opacity:0.5;}.cls-21{fill:#3b3c3f;}.cls-22{fill:#28292b;}.cls-23{opacity:0.7;}</style></defs><g id="Background_Complete" data-name="Background Complete"><rect class="cls-1" y="327.45" width="500" height="0.25"/><path class="cls-1" d="M237,337.8H43.91a5.71,5.71,0,0,1-5.7-5.71V60.66A5.71,5.71,0,0,1,43.91,55H237a5.71,5.71,0,0,1,5.71,5.71V332.09A5.71,5.71,0,0,1,237,337.8ZM43.91,55.2a5.46,5.46,0,0,0-5.45,5.46V332.09a5.46,5.46,0,0,0,5.45,5.46H237a5.47,5.47,0,0,0,5.46-5.46V60.66A5.47,5.47,0,0,0,237,55.2Z" transform="translate(0 -54.95)"/><path class="cls-1" d="M453.31,337.8H260.21a5.72,5.72,0,0,1-5.71-5.71V60.66A5.72,5.72,0,0,1,260.21,55h193.1A5.71,5.71,0,0,1,459,60.66V332.09A5.71,5.71,0,0,1,453.31,337.8ZM260.21,55.2a5.47,5.47,0,0,0-5.46,5.46V332.09a5.47,5.47,0,0,0,5.46,5.46h193.1a5.47,5.47,0,0,0,5.46-5.46V60.66a5.47,5.47,0,0,0-5.46-5.46Z" transform="translate(0 -54.95)"/><rect class="cls-1" x="174.44" y="336.97" width="26" height="0.25"/><rect class="cls-1" x="52.46" y="334.26" width="54.1" height="0.25"/><rect class="cls-1" x="147.12" y="346.26" width="26.32" height="0.25"/><rect class="cls-1" x="258.23" y="344.58" width="38.83" height="0.25"/><rect class="cls-1" x="305.96" y="344.58" width="10.69" height="0.25"/><rect class="cls-1" x="395.35" y="340.35" width="54.56" height="0.25"/><rect class="cls-2" x="381.06" y="248.05" width="45.65" height="125.47" transform="translate(807.77 566.62) rotate(180)"/><rect class="cls-2" x="181.74" y="373.53" width="236.21" height="8.87" transform="translate(599.68 700.97) rotate(180)"/><rect class="cls-3" x="172.97" y="193.1" width="208.09" height="125.47"/><rect class="cls-2" x="172.97" y="201.59" width="208.89" height="45.93"/><rect class="cls-2" x="172.97" y="255.89" width="208.89" height="45.93"/><rect class="cls-4" x="381.06" y="256.55" width="7.9" height="45.93" transform="translate(770.02 504.06) rotate(180)"/><rect class="cls-4" x="381.06" y="310.85" width="7.9" height="45.93" transform="translate(770.02 612.67) rotate(180)"/><rect class="cls-2" x="166.89" y="240.33" width="214.17" height="7.72" transform="translate(547.95 433.43) rotate(180)"/><rect class="cls-4" x="381.06" y="185.38" width="52.03" height="7.72"/><rect class="cls-2" x="328.14" y="81.68" width="107.43" height="135.04" transform="translate(763.72 243.46) rotate(180)"/><rect class="cls-3" x="304.43" y="81.68" width="127.03" height="135.04" transform="translate(735.89 243.46) rotate(180)"/><rect class="cls-5" x="311.06" y="96.33" width="113.76" height="105.75" transform="translate(218.74 462.2) rotate(-90)"/><path class="cls-4" d="M379.65,161.52l20.21-9.37v-5.89l-20.21-9.39v7.06l12.28,5.29-12.28,5.29Z" transform="translate(0 -54.95)"/><path class="cls-4" d="M366.47,134.15h-3.69l6.54,30.11H373Z" transform="translate(0 -54.95)"/><path class="cls-4" d="M356.23,154.51,344,149.22l12.28-5.29v-7.06L336,146.26v5.89l20.21,9.37Z" transform="translate(0 -54.95)"/><rect class="cls-2" x="117.21" y="153.22" width="7.04" height="229.18" transform="translate(241.47 480.67) rotate(180)"/><path class="cls-2" d="M115.75,380.8l-.19-1a5.58,5.58,0,0,0,3.33-2.91c1.83-3.24,2.94-10.15-2.15-24.63-7.84-22.32-3.16-40.32,6.17-76.2,1.62-6.25,3.46-13.33,5.37-21,7.17-28.67.54-46.45-4.79-60.74-4.13-11.09-7.4-19.85-3.22-30l.93.38c-4,9.78-.83,18.38,3.23,29.27,5.38,14.41,12.07,32.36,4.82,61.32-1.91,7.66-3.75,14.74-5.37,21C114.6,312,109.94,329.92,117.69,352c5.23,14.89,4,22.09,2,25.5A6.48,6.48,0,0,1,115.75,380.8Z" transform="translate(0 -54.95)"/><polygon class="cls-2" points="107.99 327.45 133.48 327.45 126.39 323.27 115.08 323.27 107.99 327.45"/><polygon class="cls-3" points="70.31 127.45 171.16 127.45 160.06 42.71 81.41 42.71 70.31 127.45"/><polygon class="cls-2" points="219.88 141.42 273.72 141.42 266.63 185.38 226.97 185.38 219.88 141.42"/><path class="cls-6" d="M241.51,210.68c14.68-5.31,25.92-13.29,13.34-29.44s-32.07-16.07-45.21-8.92c-16.74,9.1-13.38,35.45-13.38,35.45S226.83,216,241.51,210.68Z" transform="translate(0 -54.95)"/><path class="cls-4" d="M255.78,196c-11.23-7.65-19.19-16.5-6.16-25.84s29.1-4.55,38.76,4.12c12.31,11.06,5.2,30.47,5.2,30.47S267,203.61,255.78,196Z" transform="translate(0 -54.95)"/><path class="cls-2" d="M236,176.59c13.14-.79,24.16-4.22,17.94-18.45s-22-18.22-34.31-15.78c-15.73,3.11-19.44,22.79-19.44,22.79S222.87,177.39,236,176.59Z" transform="translate(0 -54.95)"/><path class="cls-1" d="M252.5,168.2c-10.93-3.52-19.5-8.79-11.17-19.48s22.5-10.63,32.4-5.91c12.62,6,11.5,23.46,11.5,23.46S263.43,171.71,252.5,168.2Z" transform="translate(0 -54.95)"/><path class="cls-3" d="M232,150c10.91,3.6,20.94,4.38,20.49-9.16S240.58,119,229.8,116.94c-13.75-2.56-23.11,12.19-23.11,12.19S221.11,146.37,232,150Z" transform="translate(0 -54.95)"/><path class="cls-7" d="M259.69,144.15c-7.81.54-14.56-.64-12-9.51s11.56-12.4,19-11.91c9.5.63,13.19,12,13.19,12S267.49,143.62,259.69,144.15Z" transform="translate(0 -54.95)"/></g><g id="Shadow"><ellipse id="_Path_" data-name="&lt;Path&gt;" class="cls-3" cx="250" cy="361.29" rx="193.89" ry="11.32"/></g><g id="Desk"><rect class="cls-8" x="79.51" y="196.13" width="339.75" height="12.19"/><rect class="cls-9" x="79.51" y="196.13" width="90.93" height="12.19"/><polygon class="cls-8" points="171.89 208.32 163.98 208.32 168.12 361.1 171.89 361.1 175.66 361.1 179.81 208.32 171.89 208.32"/><polygon class="cls-9" points="168.12 361.1 171.89 361.1 171.89 211.61 164.11 213.03 168.12 361.1"/><polygon class="cls-8" points="96.92 208.32 89.01 208.32 93.15 361.1 96.92 361.1 100.69 361.1 104.83 208.32 96.92 208.32"/><polygon class="cls-9" points="93.15 361.1 96.92 361.1 96.92 211.61 89.13 213.03 93.15 361.1"/><polygon class="cls-8" points="401.85 208.32 393.94 208.32 398.08 361.1 401.85 361.1 405.62 361.1 409.77 208.32 401.85 208.32"/><polygon class="cls-9" points="398.08 361.1 401.85 361.1 401.85 211.61 394.07 213.03 398.08 361.1"/><polygon class="cls-8" points="326.88 208.32 318.97 208.32 323.11 361.1 326.88 361.1 330.65 361.1 334.79 208.32 326.88 208.32"/><polygon class="cls-9" points="323.11 361.1 326.88 361.1 326.88 211.61 319.1 213.03 323.11 361.1"/><path class="cls-10" d="M240.78,185.83H160a4.16,4.16,0,0,0-4.17,5.28l10.76,51.35a6.87,6.87,0,0,0,6.38,5.27h80.84a4.16,4.16,0,0,0,4.17-5.27l-10.77-51.35A6.87,6.87,0,0,0,240.78,185.83Z" transform="translate(0 -54.95)"/><path class="cls-5" d="M173.67,244.8a4.79,4.79,0,0,1-4.32-3.6l-10.76-51.35a2.35,2.35,0,0,1,.37-2,2.17,2.17,0,0,1,1.73-.73h80.84a4.79,4.79,0,0,1,4.32,3.6l10.76,51.35a2.35,2.35,0,0,1-.37,2,2.14,2.14,0,0,1-1.73.73Z" transform="translate(0 -54.95)"/><path class="cls-11" d="M234.66,240.69,224.46,192a2,2,0,0,1,1.94-2.39h13.12a2,2,0,0,1,1.94,1.58l10.2,48.65a2,2,0,0,1-1.94,2.39H236.6A2,2,0,0,1,234.66,240.69Z" transform="translate(0 -54.95)"/><polygon class="cls-8" points="165.32 138.92 164.88 136.81 181.08 136.81 181.52 138.92 165.32 138.92"/><polygon class="cls-1" points="172.8 144.16 172.36 142.04 200.75 142.04 201.2 144.16 172.8 144.16"/><polygon class="cls-1" points="174.3 149.39 173.85 147.28 205.68 147.28 206.12 149.39 174.3 149.39"/><polygon class="cls-1" points="175.79 154.62 175.35 152.51 200.97 152.51 201.42 154.62 175.79 154.62"/><polygon class="cls-8" points="170.25 163.12 169.8 161.01 180.05 161.01 180.49 163.12 170.25 163.12"/><polygon class="cls-1" points="177.72 168.35 177.28 166.24 189.76 166.24 190.21 168.35 177.72 168.35"/><polygon class="cls-1" points="193.2 168.35 192.75 166.24 205.24 166.24 205.68 168.35 193.2 168.35"/><polygon class="cls-1" points="179.22 173.59 178.78 171.47 220.98 171.47 221.42 173.59 179.22 173.59"/><polygon class="cls-1" points="180.71 178.82 180.27 176.71 212.45 176.71 212.89 178.82 180.71 178.82"/><path class="cls-10" d="M278.52,247.42H172.16c-2.9,0-4.78,1.65-4.17,3.67H284.9C284.3,249.07,281.42,247.42,278.52,247.42Z" transform="translate(0 -54.95)"/><path class="cls-12" d="M137.21,172.85,127,124.19a2,2,0,0,1,1.94-2.38h82.6a2,2,0,0,1,1.94,1.57L223.69,172a2,2,0,0,1-1.94,2.39h-82.6A2,2,0,0,1,137.21,172.85Z" transform="translate(0 -54.95)"/><polygon class="cls-8" points="166.57 68.46 149.23 68.46 148.84 66.59 166.18 66.59 166.57 68.46"/><polygon class="cls-11" points="163.75 71.43 156.79 71.43 156.4 69.57 163.36 69.57 163.75 71.43"/><polygon class="cls-11" points="175.33 71.43 164.61 71.43 164.22 69.57 174.94 69.57 175.33 71.43"/><polygon class="cls-11" points="180 74.41 157.41 74.41 157.02 72.54 179.62 72.54 180 74.41"/><polygon class="cls-11" points="177.13 77.38 158.03 77.38 157.64 75.52 176.74 75.52 177.13 77.38"/><polygon class="cls-11" points="189.8 109 177.64 109 178.03 110.86 190.19 110.86 189.8 109"/><polygon class="cls-8" points="174.64 104.91 156.83 104.91 156.44 103.05 174.25 103.05 174.64 104.91"/><polygon class="cls-11" points="181.8 111.97 165.24 111.97 165.63 113.84 182.19 113.84 181.8 111.97"/><polygon class="cls-11" points="176.78 109 164.62 109 165.01 110.86 177.17 110.86 176.78 109"/><polygon class="cls-11" points="188.32 106.02 164 106.02 164.39 107.89 188.71 107.89 188.32 106.02"/><polygon class="cls-8" points="165.96 54.58 146.34 54.58 145.95 52.71 165.57 52.71 165.96 54.58"/><polygon class="cls-11" points="175.65 61.64 154.01 61.64 154.4 63.5 176.03 63.5 175.65 61.64"/><polygon class="cls-11" points="171.32 58.66 153.39 58.66 153.78 60.53 171.71 60.53 171.32 58.66"/><polygon class="cls-11" points="172.51 55.69 152.77 55.69 153.16 57.55 172.9 57.55 172.51 55.69"/><polygon class="cls-8" points="165.74 82.22 152.1 82.22 151.71 80.36 165.35 80.36 165.74 82.22"/><polygon class="cls-11" points="187.16 89.28 160.51 89.28 160.9 91.15 187.54 91.15 187.16 89.28"/><polygon class="cls-11" points="170.93 86.31 159.89 86.31 160.28 88.17 171.32 88.17 170.93 86.31"/><polygon class="cls-11" points="182.91 86.31 171.87 86.31 172.26 88.17 183.3 88.17 182.91 86.31"/><polygon class="cls-11" points="183.59 83.33 159.27 83.33 159.66 85.2 183.97 85.2 183.59 83.33"/><polygon class="cls-11" points="183.54 98.21 162.37 98.21 162.76 100.07 183.93 100.07 183.54 98.21"/><polygon class="cls-11" points="167.91 95.23 161.75 95.23 162.14 97.1 168.29 97.1 167.91 95.23"/><polygon class="cls-11" points="177.54 95.23 168.75 95.23 169.14 97.1 177.93 97.1 177.54 95.23"/><polygon class="cls-11" points="185.45 92.26 161.13 92.26 161.52 94.12 185.84 94.12 185.45 92.26"/><polygon class="cls-11" points="204.6 91.76 195.89 91.76 195.5 89.89 204.22 89.89 204.6 91.76"/><polygon class="cls-11" points="219.1 91.76 205.68 91.76 205.29 89.89 218.71 89.89 219.1 91.76"/><polygon class="cls-11" points="224.8 94.73 196.51 94.73 196.12 92.87 224.41 92.87 224.8 94.73"/><polygon class="cls-11" points="221.04 97.71 197.13 97.71 196.74 95.84 220.65 95.84 221.04 97.71"/><polygon class="cls-11" points="231.75 79.92 204.66 79.92 205.05 81.79 232.14 81.79 231.75 79.92"/><polygon class="cls-11" points="226.49 76.95 204.04 76.95 204.43 78.81 226.87 78.81 226.49 76.95"/><polygon class="cls-8" points="222.43 73.97 197.71 73.97 198.1 75.84 222.82 75.84 222.43 73.97"/><polygon class="cls-11" points="232.97 109.61 199.61 109.61 200 111.47 233.36 111.47 232.97 109.61"/><polygon class="cls-11" points="212.81 106.63 198.99 106.63 199.38 108.5 213.2 108.5 212.81 106.63"/><polygon class="cls-11" points="227.81 106.63 213.99 106.63 214.38 108.5 228.2 108.5 227.81 106.63"/><polygon class="cls-11" points="228.81 103.66 198.37 103.66 198.76 105.52 229.2 105.52 228.81 103.66"/><polygon class="cls-11" points="227.97 118.53 201.47 118.53 201.86 120.4 228.36 120.4 227.97 118.53"/><polygon class="cls-11" points="208.56 115.56 200.85 115.56 201.24 117.42 208.95 117.42 208.56 115.56"/><polygon class="cls-11" points="220.62 115.56 209.62 115.56 210.01 117.42 221.01 117.42 220.62 115.56"/><polygon class="cls-11" points="230.68 112.58 200.23 112.58 200.62 114.45 231.06 114.45 230.68 112.58"/><polygon class="cls-11" points="149.6 120.84 128.86 120.84 129.25 122.7 149.99 122.7 149.6 120.84"/><polygon class="cls-11" points="143.47 117.86 128.24 117.86 128.63 119.73 143.85 119.73 143.47 117.86"/><polygon class="cls-11" points="159.76 117.86 144.54 117.86 144.93 119.73 160.16 119.73 159.76 117.86"/><polygon class="cls-11" points="158.07 114.89 127.62 114.89 128.01 116.75 158.45 116.75 158.07 114.89"/><polygon class="cls-8" points="390.95 176.71 378.11 176.71 379.61 196.13 389.45 196.13 390.95 176.71"/><polygon class="cls-13" points="390.95 176.71 378.11 176.71 379.61 196.13 389.45 196.13 390.95 176.71"/><polygon class="cls-10" points="111.13 163.22 129.59 163.22 123.29 196.13 104.83 196.13 111.13 163.22"/><polygon class="cls-8" points="134.64 154.4 108.57 154.4 115.87 196.13 141.94 196.13 134.64 154.4"/><polygon class="cls-8" points="107.03 154.4 108.57 154.4 115.87 196.13 114.33 196.13 107.03 154.4"/><polygon class="cls-14" points="107.03 154.4 108.57 154.4 115.87 196.13 114.33 196.13 107.03 154.4"/><polygon class="cls-5" points="119.62 191.67 113.88 158.86 130.9 158.86 136.63 191.67 119.62 191.67"/><polygon class="cls-15" points="135.82 191.67 130.09 158.86 130.9 158.86 136.63 191.67 135.82 191.67"/></g><g id="Character"><path class="cls-10" d="M263.77,156c.37.8.25,1.65-.28,1.89s-1.25-.21-1.62-1-.24-1.65.28-1.89S263.4,155.16,263.77,156Z" transform="translate(0 -54.95)"/><path class="cls-16" d="M264.09,157.58s.32,5.46-.66,8.62c2,.67,4.16-1,4.16-1Z" transform="translate(0 -54.95)"/><path class="cls-10" d="M263.87,149.39a.53.53,0,0,1-.3.12,4.12,4.12,0,0,0-3.29,1.79.52.52,0,1,1-.9-.52,5.14,5.14,0,0,1,4.13-2.31.52.52,0,0,1,.36.92Z" transform="translate(0 -54.95)"/><path class="cls-17" d="M293.22,154.76c3.09,10.7,6.54,19,10.75,23.74,0,0,.08,8.41-14.25,12.41-15.76,4.4-9.72-5.72-9.72-5.72,8-4.45,7.24-11.17,1.22-13.73Z" transform="translate(0 -54.95)"/><path class="cls-10" d="M307.31,176.45c-.28-3.91-.65-8.37-3.06-8.49-2.66-.12-18.06,6.76-21.35,11.61s3.14,9.6,3.14,9.6Z" transform="translate(0 -54.95)"/><path class="cls-17" d="M275.79,237l-13.3-.44.24,11.14s11.6-1.2,12.11-4.25Z" transform="translate(0 -54.95)"/><polygon class="cls-17" points="255.46 187.08 254.06 192.78 262.73 192.76 262.49 181.62 255.46 187.08"/><path class="cls-8" d="M329.17,190.71l-.28,2.86c-.09.92-.21,1.82-.33,2.73-.23,1.81-.52,3.62-.83,5.42-.6,3.61-1.38,7.2-2.28,10.81a107.83,107.83,0,0,1-3.32,10.87c-.69,1.83-1.41,3.66-2.27,5.52a45.73,45.73,0,0,1-3,5.65c-.27.47-.61,1-.94,1.44s-.65,1-1,1.46-.72,1-1.18,1.47l-.65.74a10.06,10.06,0,0,1-.74.78,22.81,22.81,0,0,1-6.93,4.65,41,41,0,0,1-12.43,3.15c-1.95.23-3.88.32-5.77.37s-3.78,0-5.64-.1-3.7-.26-5.53-.48-3.61-.51-5.55-.9l.32-10.45a160.33,160.33,0,0,0,18.9-4.5,41.44,41.44,0,0,0,4.06-1.56,18.63,18.63,0,0,0,3.22-1.75,4.48,4.48,0,0,0,1.46-1.42l.29-.46a6.53,6.53,0,0,0,.37-.61,7.56,7.56,0,0,0,.39-.71c.13-.26.27-.5.4-.79a52.59,52.59,0,0,0,2.89-7.94c.82-2.94,1.59-6,2.21-9.17s1.22-6.37,1.77-9.6l.76-4.86.69-4.73Z" transform="translate(0 -54.95)"/><path class="cls-18" d="M330.13,190.41l-.28,2.85c-.09.92-.22,1.83-.33,2.74-.24,1.81-.52,3.61-.83,5.42-.61,3.61-1.39,7.19-2.28,10.81s-2,7.22-3.32,10.87c-.69,1.83-1.41,3.66-2.28,5.52a46.34,46.34,0,0,1-3,5.65c-.28.47-.61,1-.94,1.44s-.66,1-1,1.46-.73,1-1.18,1.47l-.65.74c-.21.24-.43.48-.74.78a23,23,0,0,1-6.93,4.65A41,41,0,0,1,293.9,248c-1.95.23-3.88.32-5.78.36s-3.77,0-5.63-.09-3.7-.27-5.53-.48-3.61-.51-5.56-.9l.32-10.45a161.84,161.84,0,0,0,18.9-4.51,38.4,38.4,0,0,0,4.07-1.56,18.71,18.71,0,0,0,3.22-1.74,4.4,4.4,0,0,0,1.45-1.42l.3-.46c.12-.15.24-.41.37-.62a7.56,7.56,0,0,0,.39-.71c.13-.25.27-.49.4-.79a52.08,52.08,0,0,0,2.88-7.93c.82-2.94,1.6-6,2.22-9.17s1.22-6.37,1.77-9.6l.76-4.86.68-4.74Z" transform="translate(0 -54.95)"/><path class="cls-8" d="M270.12,204a326.55,326.55,0,0,1,8.33,65.14H337c.32-7.23-.9-48-6.79-77.45a20.4,20.4,0,0,0-24.4-16l-.28.07c-7.31,1.66-17.8,4.34-24,6.69l-.25.1A18.33,18.33,0,0,0,270.12,204Z" transform="translate(0 -54.95)"/><path class="cls-18" d="M273.93,222.7c.46,2.81.93,5.79,1.36,8.91,4.79-5,6.31-20.32,6.31-20.32Z" transform="translate(0 -54.95)"/><path class="cls-8" d="M225.29,237.73,212,236.49l-.44,11.13A12.48,12.48,0,0,0,224,244.11Z" transform="translate(0 -54.95)"/><polygon class="cls-8" points="205.68 184.82 201.42 192.47 211.6 192.67 212.04 181.53 205.68 184.82"/><path class="cls-8" d="M292.09,198.87c-.92,1.75-1.74,3.3-2.66,4.9s-1.8,3.16-2.75,4.71c-1.88,3.12-3.83,6.18-5.89,9.21a153.64,153.64,0,0,1-13.71,17.64,75.7,75.7,0,0,1-8.69,8.27c-.39.33-.85.65-1.28,1s-.81.63-1.45,1-1.18.74-1.76,1.06-1.18.61-1.77.87a31.42,31.42,0,0,1-6.88,2.09,43.44,43.44,0,0,1-12.52.28,52,52,0,0,1-5.8-1q-1.43-.33-2.82-.75c-1-.28-1.81-.59-2.88-1l1.65-10.32c6.28-.85,13.07-1.94,17.75-4.06a12.83,12.83,0,0,0,2.91-1.67,6.81,6.81,0,0,0,1-.84c.07-.09.38-.36.61-.58s.5-.43.75-.69a71.37,71.37,0,0,0,6-6.75,195.49,195.49,0,0,0,11.27-16.16c1.8-2.83,3.55-5.71,5.3-8.6l2.58-4.34,2.49-4.27Z" transform="translate(0 -54.95)"/><polygon class="cls-17" points="276.02 352.65 265.08 352.65 259.57 327.3 270.52 327.3 276.02 352.65"/><path class="cls-10" d="M264.47,405.26h12.3a1,1,0,0,1,.93.74l2.16,9.74a1.6,1.6,0,0,1-1.6,1.94c-4.29-.07-6.38-.32-11.79-.32-3.33,0-7.6.34-12.19.34s-5.2-4.54-3.32-4.95c8.44-1.85,9-4.39,11.73-6.82A2.64,2.64,0,0,1,264.47,405.26Z" transform="translate(0 -54.95)"/><g class="cls-19"><polygon points="270.53 327.31 259.57 327.31 262.63 341.34 273.37 340.37 270.53 327.31"/></g><path class="cls-17" d="M289.71,141.9c4,10.12,6.78,15.85,4.14,23.2-4,11.05-18.19,12.17-25.09,3.43-6.2-7.87-11.62-23.1-3.79-31.47A14.81,14.81,0,0,1,289.71,141.9Z" transform="translate(0 -54.95)"/><path class="cls-10" d="M270.49,157.06c-1.64,2.2-2.9,3.87-2.9,3.87s-3.37-8.37-2.08-12.21c-1.64-3.25-4.95,1.54-6.2-4.79s4.16-13.13,6.2-14.54a7.41,7.41,0,0,1,.28,2.27,28,28,0,0,1,19.6-6.19,6.77,6.77,0,0,0-1.1,2.94s11.87,2,14.57,8.72a12.83,12.83,0,0,0-3-1,14.49,14.49,0,0,1,2.4,10.72,110.21,110.21,0,0,0-1.34,16.53c.11,2.84-7.68,8.27-12.43,2.47S270.49,157.06,270.49,157.06Z" transform="translate(0 -54.95)"/><path class="cls-17" d="M275.44,154.88a11.07,11.07,0,0,1-.5,7.1c-1.27,3-3.88,2.28-5.17-.34-1.17-2.35-1.92-6.71.15-8.8S274.66,152.05,275.44,154.88Z" transform="translate(0 -54.95)"/><path d="M296,269.1s-50.84,18.44-52.33,42.83c-2.76,44.93,15.61,80.5,15.61,80.5l16.84-1.8s-3-14.46-5.23-55.16c-2.81-51.15,84,1.2,66.12-66.37Z" transform="translate(0 -54.95)"/><path class="cls-20" d="M296,269.39s-50.84,18.43-52.33,42.82c-2.76,44.93,15.61,80.5,15.61,80.5l16.84-1.8s-3-14.46-5.23-55.16c-2.81-51.15,84,1.2,66.12-66.36Z" transform="translate(0 -54.95)"/><path class="cls-21" d="M254.62,386.23c-.08,0,2.68,7.48,2.68,7.48l21-2.06-1.05-6.8Z" transform="translate(0 -54.95)"/><polygon class="cls-17" points="228.73 353.89 217.78 353.89 214.58 328.54 225.53 328.54 228.73 353.89"/><path class="cls-10" d="M217.7,405.25h12a.94.94,0,0,1,.93.74l2.18,9.73a1.59,1.59,0,0,1-1.57,2c-4.31-.07-10.55-.31-16-.3-6.34,0-7.55.35-15,.36-4.5,0-5.75-4.53-3.87-5,8.56-1.88,11.3-2.09,18.69-6.66A5,5,0,0,1,217.7,405.25Z" transform="translate(0 -54.95)"/><polygon class="cls-18" points="214.59 328.55 216.33 342.36 227.19 341.62 225.54 328.55 214.59 328.55"/><path d="M278.45,269.1s-83.3,7.39-82.4,49.23c.93,43.52,17.19,72.87,17.19,72.87H229.5s-3.08-22.58-2.53-65.42c.16-12.83,26.1-17.07,51.42-18.57,21.88-1.3,42.36-13.77,50.86-34L331,269.1Z" transform="translate(0 -54.95)"/><path class="cls-20" d="M278.49,269.17s-83.31,7.39-82.41,49.23c.94,43.52,17.19,72.87,17.19,72.87h16.27s-3.08-22.58-2.54-65.42c.17-12.84,26.1-17.08,51.43-18.57,21.88-1.3,42.36-13.77,50.86-34l1.74-4.14Z" transform="translate(0 -54.95)"/><path class="cls-22" d="M209.43,386.83c-.07,0,2.79,7.52,2.79,7.52l19.64-1.41-1.15-6.8Z" transform="translate(0 -54.95)"/><path class="cls-10" d="M300.32,222.08l-10.57,40.73a127.1,127.1,0,0,0-4.06,31.95v18.93c0,4.78,3.52,8.66,7.87,8.66h54.18c4.35,0,7.87-3.88,7.87-8.66V294.76a127.11,127.11,0,0,1,4.07-31.95l9.33-36c1.44-5.53-2.34-11-7.57-11H307.88A8,8,0,0,0,300.32,222.08Z" transform="translate(0 -54.95)"/><path class="cls-10" d="M232.93,302.63l1.77,10.1c.94,5.31,5.61,9.62,10.44,9.62h60.23c4.83,0,8-4.31,7.06-9.62l-1.77-10.1c-1.07-6.05-6.38-10.95-11.88-10.95H241C235.46,291.68,231.87,296.58,232.93,302.63Z" transform="translate(0 -54.95)"/><polygon class="cls-8" points="311.17 277.54 279.62 277.54 276.54 267.39 314.25 267.39 311.17 277.54"/><rect class="cls-8" x="289.76" y="277.54" width="11.27" height="75.41"/><polygon class="cls-23" points="301.03 352.95 289.76 352.95 289.76 279.35 301.03 280.5 301.03 352.95"/><polygon class="cls-23" points="298.28 352.95 295.59 352.95 295.59 279.94 298.28 280.22 298.28 352.95"/><path class="cls-8" d="M321.31,419.56H269.47a1.44,1.44,0,0,1-.84-2.6l8.22-6a23.08,23.08,0,0,1,13.62-4.46h9.85a23.07,23.07,0,0,1,13.61,4.46l8.23,6A1.44,1.44,0,0,1,321.31,419.56Z" transform="translate(0 -54.95)"/></g></svg>