<svg id="Layer_1" data-name="Layer 1" xmlns="http://www.w3.org/2000/svg" viewBox="0 0 1288.82 344.1"><defs><style>.cls-1{fill:#f4f4f4;stroke:#f4f4f4;stroke-miterlimit:10;stroke-width:2px;}.cls-2{fill:#4e5ca6;}.cls-3{font-size:253.27px;fill:#303031;font-family:Ubuntu-Regular, Ubuntu;}</style></defs><rect class="cls-1" x="8.79" y="7.5" width="328.71" height="328.71" rx="89.11"/><path class="cls-2" d="M165.4,287.78q-9.9,0-19.35-.6t-18.59-1.8q-9.17-1.2-17.56-2.7t-16.19-3.6v-46.2q10.19.9,22,1.5t24,.9q12.15.3,22.65.3a76.1,76.1,0,0,0,16.5-1.5q6.6-1.5,9.9-4.8t3.3-9v-3.6q0-6.6-4.64-9.9a18.46,18.46,0,0,0-11-3.3H160.6q-34.8,0-52.8-15.3t-18-51.3V127q0-33,19.8-49.35t57-16.35a246.71,246.71,0,0,1,26.55,1.35q12.45,1.35,23.4,3.3t19.66,4v46.2q-13.82-1.2-31.06-2t-31.35-.75a84.41,84.41,0,0,0-15,1.2q-6.6,1.2-10.2,4.8c-2.39,2.4-3.6,5.9-3.6,10.5v3q0,7.5,4.8,11.4t14.7,3.9h19.8q21,0,34.95,7.95a52,52,0,0,1,21,21.6q7,13.65,7.05,31v9.9q0,28.5-9.9,43.5t-28.19,20.25Q190.9,287.77,165.4,287.78Z"/><path class="cls-2" d="M93.71,232.88A45,45,0,0,0,87.76,250a47,47,0,0,0,5.95,29.09Z"/><text class="cls-3" transform="translate(418.54 268.82)">Stoman</text></svg>