<?xml version="1.0" encoding="utf-8"?>
<!-- Generator: Adobe Illustrator 25.4.1, SVG Export Plug-In . SVG Version: 6.00 Build 0)  -->
<svg version="1.1" id="Layer_1" xmlns="http://www.w3.org/2000/svg" xmlns:xlink="http://www.w3.org/1999/xlink" x="0px" y="0px"
	 viewBox="0 0 1288.8 344.1" style="enable-background:new 0 0 1288.8 344.1;" xml:space="preserve">
<style type="text/css">
	.st0{fill:#F4F4F4;stroke:#F4F4F4;stroke-width:2;stroke-miterlimit:10;}
	.st1{fill:#4E5CA6;}
	.st2{enable-background:new    ;}
	.st3{fill:#303031;}
</style>
<path class="st0" d="M97.9,7.5h150.5c49.2,0,89.1,39.9,89.1,89.1v150.5c0,49.2-39.9,89.1-89.1,89.1H97.9
	c-49.2,0-89.1-39.9-89.1-89.1V96.6C8.8,47.4,48.7,7.5,97.9,7.5z"/>
<path class="st1" d="M165.4,287.8c-6.6,0-13.1-0.2-19.4-0.6s-12.5-1-18.6-1.8c-6.1-0.8-12-1.7-17.6-2.7s-11-2.2-16.2-3.6v-46.2
	c6.8,0.6,14.1,1.1,22,1.5c7.9,0.4,15.9,0.7,24,0.9c8.1,0.2,15.6,0.3,22.6,0.3c5.5,0.1,11.1-0.4,16.5-1.5c4.4-1,7.7-2.6,9.9-4.8
	c2.2-2.2,3.3-5.2,3.3-9v-3.6c0-4.4-1.5-7.7-4.6-9.9c-3.2-2.2-7.1-3.4-11-3.3h-15.8c-23.2,0-40.8-5.1-52.8-15.3
	c-12-10.2-18-27.3-18-51.3V127c0-22,6.6-38.5,19.8-49.3s32.2-16.3,57-16.3c8.9,0,17.7,0.4,26.6,1.3c8.3,0.9,16.1,2,23.4,3.3
	c7.3,1.3,13.9,2.6,19.7,4v46.2c-9.2-0.8-19.6-1.5-31.1-2c-11.5-0.5-21.9-0.8-31.4-0.8c-5,0-10,0.4-15,1.2c-4.4,0.8-7.8,2.4-10.2,4.8
	c-2.4,2.4-3.6,5.9-3.6,10.5v3c0,5,1.6,8.8,4.8,11.4c3.2,2.6,8.1,3.9,14.7,3.9h19.8c14,0,25.6,2.6,34.9,7.9c9,5,16.3,12.5,21,21.6
	c4.7,9.1,7,19.4,7.1,31v9.9c0,19-3.3,33.5-9.9,43.5c-6.6,10-16,16.8-28.2,20.2C197,286,182.4,287.8,165.4,287.8z"/>
<path class="st1" d="M93.7,232.9c-3.1,5.2-5.1,11.1-5.9,17.1c-1.2,10.1,0.9,20.3,5.9,29.1V232.9z"/>
<g class="st2">
	<path class="st3" d="M477.2,269.1c-39.8,0-63.9-21.8-66-54.7H437c1.1,20.9,14.5,34.5,39.8,34.5c20.9,0,36.6-9.9,36.6-26.9
		c0-13.8-9-20.7-28.1-24.8l-23.9-4.6c-23.2-4.6-44.4-16.3-44.4-44.4c0-27.8,24.4-48.8,58.6-48.8s60.3,20.9,62.3,53.8h-25.8
		c-1.4-19.8-15.6-33.6-36.3-33.6c-21.4,0-33.1,12.6-33.1,26.9c0,15.6,13.6,21.2,29,24.4l24.4,4.8c28.3,5.8,44.2,18.2,44.2,42.8
		C540.2,247.3,517.2,269.1,477.2,269.1z"/>
	<path class="st3" d="M636.4,264.8c-7.1,3.2-13.3,4.4-20.7,4.4c-22.5,0-38.2-12.2-38.2-39.1v-65.3h-26.9v-19.8h26.9v-36.1h23.2v36.1
		h36.8v19.8h-36.8v60c0,16.8,8,22.8,20.5,22.8c5.5,0,10.4-0.9,15.2-3.2V264.8z"/>
	<path class="st3" d="M650.9,205.9c0-36.1,25.3-63.2,59.8-63.2c34.5,0,59.8,27.1,59.8,63.2c0,36.1-25.3,63.2-59.8,63.2
		C676.2,269.1,650.9,242,650.9,205.9z M746.5,205.9c0-26.7-15.9-42.5-35.9-42.5S675,179.2,675,205.9c0,26.7,15.6,42.8,35.7,42.8
		S746.5,232.6,746.5,205.9z"/>
	<path class="st3" d="M794.1,266.8V144.9h21.6v20.2c8.3-14,21.4-22.5,38.2-22.5c17.9,0,31.5,9.2,37,25.3
		c8.5-15.6,22.5-25.3,41.2-25.3c25.1,0,41.2,16.3,41.2,45.3v78.9h-23.2v-71.5c0-20.2-9-32.2-26-32.2c-15.9,0-28.7,13.3-28.7,33.8
		v69.9h-23.2v-71.5c0-20.2-9-32.2-26-32.2c-16.1,0-28.7,13.3-28.7,33.8v69.9H794.1z"/>
	<path class="st3" d="M1078.2,248c-7.6,13.6-21.2,21.2-39.1,21.2c-25.3,0-41.9-14.5-41.9-36.8c0-23.9,19.1-36.3,55.4-36.3
		c7.1,0,12.9,0.2,22.8,1.4v-9c0-17.5-9.4-27.4-25.5-27.4c-17,0-27.4,10.1-28.1,27.1h-21.2c1.2-27.4,20.7-45.5,49.2-45.5
		c30.1,0,47.6,17,47.6,46v78.2h-19.3V248z M1043.7,252.6c19.5,0,31.7-12.2,31.7-30.8v-9.9c-9-1.2-15.4-1.4-21.4-1.4
		c-23.2,0-34.7,6.9-34.7,21.2C1019.3,244.3,1028.7,252.6,1043.7,252.6z"/>
	<path class="st3" d="M1151.8,266.8h-23.2V144.9h21.6v20.2c8.3-13.6,22.1-22.5,38.9-22.5c25.1,0,41.6,16.1,41.6,45.3v78.9h-23.2
		v-71.1c0-20.9-9.2-32.7-26.5-32.7c-15.9,0-29.2,13.3-29.2,35V266.8z"/>
</g>
</svg>
