<svg id="Layer_1" data-name="Layer 1" xmlns="http://www.w3.org/2000/svg" viewBox="0 0 1314 381.07"><defs><style>.cls-1{fill:#f4f4f4;stroke:#f4f4f4;stroke-miterlimit:10;stroke-width:2px;}.cls-2{fill:#4e5ca6;}.cls-3{font-size:253.27px;fill:#303031;font-family:Ubuntu-Regular, Ubuntu;}</style></defs><rect class="cls-1" x="18.41" y="12.66" width="357.85" height="357.85" rx="100.27"/><path class="cls-2" d="M189.6,307.51q-9.9,0-19.35-.6t-18.6-1.8q-9.17-1.2-17.55-2.7t-16.2-3.6v-46.2q10.18.9,22,1.5t24,.9q12.15.3,22.65.3a76.1,76.1,0,0,0,16.5-1.5q6.59-1.5,9.9-4.8t3.3-9v-3.6c0-4.4-1.56-7.7-4.65-9.9a18.45,18.45,0,0,0-11-3.3H184.8q-34.81,0-52.8-15.3t-18-51.3v-9.9q0-33,19.8-49.35T190.8,81a246.71,246.71,0,0,1,26.55,1.35q12.43,1.35,23.4,3.3t19.65,4v46.2q-13.8-1.2-31-1.95T198,133.21a84.25,84.25,0,0,0-15,1.2q-6.6,1.2-10.2,4.8t-3.6,10.5v3q0,7.5,4.8,11.4t14.7,3.9h19.8q21,0,34.95,8a52,52,0,0,1,21,21.6q7,13.65,7.05,31.05v9.9q0,28.5-9.9,43.5t-28.2,20.25Q215.1,307.5,189.6,307.51Z"/><path class="cls-2" d="M117.9,252.61a45,45,0,0,0-6,17.1,46.88,46.88,0,0,0,6,29.09Z"/><text class="cls-3" transform="translate(429.73 288.55)">Stoman</text></svg>